<svg viewBox="0 0 50.28 40.86" xmlns="http://www.w3.org/2000/svg" xmlns:xlink="http://www.w3.org/1999/xlink"><clipPath id="a"><path d="m0 0h50.28v40.86h-50.28z"/></clipPath><g clip-path="url(#a)" fill="#1d1d1b"><path d="m49.51 16.1a7 7 0 0 0 -2.66-3.18 12.82 12.82 0 0 0 -12.27-.37 7.13 7.13 0 0 0 -3.61 5c-.72 3.32-.54 7.26 2 9.74a12.07 12.07 0 0 0 11.16 2.11 4.8 4.8 0 0 0 1.17-.4h.12a7.78 7.78 0 0 0 3.18-2.4c1.97-2.95 2.11-7.25.91-10.5zm-6.27 7.45a2.08 2.08 0 0 1 -1.24 1.51 4.15 4.15 0 0 1 -3.48-.21 3.09 3.09 0 0 1 -1-2.45 16 16 0 0 1 .3-5.35 2.58 2.58 0 0 1 2.47-1.36 3.14 3.14 0 0 1 2.68 1 4.71 4.71 0 0 1 .45 2.09 33.21 33.21 0 0 1 -.18 4.77z"/><path d="m11.76 25.16c-.88-.05-1.86 0-2.71-.08v-9.16l.06-.08h2.63c0-1.49.05-3.09 0-4.44h-10-1.65v4.41c.9 0 1.75 0 2.63.08v8.88.36l-2.72.04v4.3h11.76z"/><path d="m41.25 31.43a20.65 20.65 0 0 1 -4.07 4.33c0 .08-.21.05-.26 0-.67-.42-1.38-.76-2-1.18a22.45 22.45 0 0 0 2.31-3.16h-.83a18 18 0 0 1 -2.23 2.85 26.17 26.17 0 0 0 -3.42-1.2l-.14-.1a12.32 12.32 0 0 0 .64-1.55h-.72l-.71 1.41a35.15 35.15 0 0 0 -4.89-.62c-.08-.24 0-.58-.08-.79h-.69c-.06.32.08.55-.08.81a30.59 30.59 0 0 0 -4.78.58l-.72-1.39a2.29 2.29 0 0 0 -.74 0l.64 1.58-.08.08a33.89 33.89 0 0 0 -3.51 1.22l-.1-.05a20.36 20.36 0 0 1 -2-2.58c-.13-.45-.66-.19-1-.24a22.27 22.27 0 0 0 2.33 3.21 24.76 24.76 0 0 1 -2.18 1.23 19.54 19.54 0 0 1 -4.2-4.41 3 3 0 0 0 -.85 0 20.9 20.9 0 0 0 8 7.13 0 0 0 0 1 0 0s.08 0 0 .08a21.9 21.9 0 0 0 6.7 2.06 20.91 20.91 0 0 0 20.51-9.3 4 4 0 0 0 -.85 0zm-11.08 2.35.08-.05a14.29 14.29 0 0 1 3.24 1.12 16.83 16.83 0 0 1 -3 2.5c-.61.37-1.22.76-1.86 1.07l-1.14-.49.08-.18a31.88 31.88 0 0 0 2.55-4m-5.19-.75a20 20 0 0 1 4.44.52v.08a27.22 27.22 0 0 1 -2.68 4 7.32 7.32 0 0 1 -1.33-.15l-.46-.06c-.05-1.54-.08-2.9 0-4.44zm-5.12.47a22.12 22.12 0 0 1 4.3-.47v4.41c-.56.13-1.17.13-1.7.26a23.23 23.23 0 0 1 -2.77-4.1zm-4.28 1.41a16.88 16.88 0 0 1 3.24-1.15h.11a39.17 39.17 0 0 0 2.68 4.15c-.37.21-.82.34-1.19.55a17.82 17.82 0 0 1 -4.84-3.43zm3.47 4.46a19.07 19.07 0 0 1 -6.22-2.92v-.08a14.11 14.11 0 0 1 2-1.1 27.15 27.15 0 0 0 4.78 3.68 2.18 2.18 0 0 1 -.53.42m9.85.33a20.07 20.07 0 0 1 -8.76-.05c-.06-.13.13-.15.21-.23a8.29 8.29 0 0 1 8.74.13c.08.16-.13.1-.19.16zm2.55-.73-1.24.4a3.14 3.14 0 0 1 -.59-.42v-.08a23.41 23.41 0 0 0 4.7-3.63 10.44 10.44 0 0 1 2 1.12 17.93 17.93 0 0 1 -5 2.62z"/><path d="m7.69 9.37a24.3 24.3 0 0 1 2.16-2.59 13.89 13.89 0 0 1 2.07-1.78c.69.45 1.46.82 2.12 1.23a23.17 23.17 0 0 0 -2.28 3.13 1.55 1.55 0 0 0 .8 0 19.91 19.91 0 0 1 2.23-2.76c1.14.42 2.25.86 3.43 1.17l.09.1-.65 1.52a2.49 2.49 0 0 0 .77 0c.23-.44.42-.94.68-1.38a26.11 26.11 0 0 0 4.82.57c.21.19.05.58.13.81h.71c.08-.26 0-.55.08-.78a25.19 25.19 0 0 0 4.66-.61h.13l.71 1.36a1.73 1.73 0 0 0 .75-.06l-.67-1.51h.06a29.6 29.6 0 0 0 3.51-1.26 24.42 24.42 0 0 1 2.31 2.87 2.39 2.39 0 0 0 .8-.06 10.29 10.29 0 0 0 -1.11-1.64 11.22 11.22 0 0 0 -1.17-1.41v-.14l1.86-1.06.26-.1a19.27 19.27 0 0 1 4.2 4.35c.32 0 .59.11.86 0a21 21 0 0 0 -15.82-9.26v.05h-.06a11.63 11.63 0 0 0 -2.36 0 5.33 5.33 0 0 0 -1 0 20.8 20.8 0 0 0 -15.92 9.26 3.38 3.38 0 0 0 .84-.02zm11-2.3h-.11a21.72 21.72 0 0 1 -3.13-1.07l.05-.16a21.11 21.11 0 0 1 4.7-3.42c.4.16.8.29 1.2.47l-.08.2a34.5 34.5 0 0 0 -2.6 4m5.29.7a9.66 9.66 0 0 1 -2.15-.08 15.29 15.29 0 0 1 -2.34-.42 23.1 23.1 0 0 1 2.76-4.09l1.7.23c.08 1.36 0 2.93 0 4.37zm.82 0c0-1.39 0-2.93 0-4.37l1.65-.23a22.32 22.32 0 0 1 2.74 4.07 19.1 19.1 0 0 1 -4.39.53m8.48-1.79a17.67 17.67 0 0 1 -3.24 1.1 43.65 43.65 0 0 0 -2.74-4.1c.37-.2.82-.36 1.22-.57a18.8 18.8 0 0 1 4.81 3.49zm-3.4-4.5a19.09 19.09 0 0 1 6.24 2.93l-.06.1-1.83 1h-.13a24 24 0 0 0 -4.73-3.53c.05-.18.32-.31.5-.44m-1-.26a8.11 8.11 0 0 1 -8.5.28c-.14-.1-.4-.15-.43-.33a19.8 19.8 0 0 1 8.93 0m-16.27 3.24a19.1 19.1 0 0 1 5.5-2.77c.09-.08.14-.16.24-.16v.06c.21 0 .37-.19.56 0s.35.23.48.36a27 27 0 0 0 -4.76 3.68 8.57 8.57 0 0 1 -2-1.09z"/><path d="m24 25.37a7.06 7.06 0 0 1 -7-1.72c-.21-.27-.35-.58-.56-.84h-3.59c0 2.11-.08 4.54 0 6.63h4l.05-1.25c.45.21.9.47 1.36.7a11.14 11.14 0 0 0 9.05 0 5.37 5.37 0 0 0 2.77-5.48 6.31 6.31 0 0 0 -4.57-4.78l-6.43-1.85-.48-.24a.73.73 0 0 1 -.29-.7c.5-.86 1.67-.6 2.55-.57a6.5 6.5 0 0 1 4.86 2.58h3.8c.06-2.14 0-4-.05-6.18-1.2 0-2.66 0-3.85 0a5.35 5.35 0 0 1 -.08 1.06l-1.22-.65c-2.93-1.22-7-1.35-9.67.55a5.27 5.27 0 0 0 -1.81 5.48c.35 1.89 2.16 3.27 3.89 3.89 2.36.83 4.83 1.44 7.23 2.24.23.11.55.35.5.63s-.24.4-.46.5z"/></g></svg>