<svg viewBox="0 0 700 700" xmlns="http://www.w3.org/2000/svg"><path fill="#333" d="m235.78 212.94-22.85 22.85a10.77 10.77 0 0 0 0 15.22l95.19 95.19a5.38 5.38 0 0 1 0 7.61l-95.19 95.19a10.78 10.78 0 0 0 0 15.23l22.85 22.85a10.77 10.77 0 0 0 15.22 0l95.19-95.19a5.38 5.38 0 0 1 7.61 0l95.2 95.19a10.78 10.78 0 0 0 15.23 0l22.85-22.85a10.78 10.78 0 0 0 0-15.23l-95.19-95.19a5.38 5.38 0 0 1 0-7.61l95.18-95.2a10.77 10.77 0 0 0 0-15.22l-22.85-22.85a10.78 10.78 0 0 0 -15.23 0l-95.19 95.2a5.38 5.38 0 0 1 -7.61 0l-95.19-95.19a10.77 10.77 0 0 0 -15.22 0z" fill-rule="evenodd"/><path fill="#333"  d="m140.59 559.41c115.65 115.66 303.17 115.66 418.82 0s115.65-303.17 0-418.82-303.17-115.65-418.82 0-115.66 303.17 0 418.82zm-38.07 38.08c-136.69-136.69-136.69-358.28 0-495s358.28-136.69 495 0 136.68 358.28 0 495-358.28 136.68-495 0z"/></svg>