<?xml version="1.0" encoding="utf-8"?>
<!-- Generator: Adobe Illustrator 15.1.0, SVG Export Plug-In . SVG Version: 6.00 Build 0)  -->
<!DOCTYPE svg PUBLIC "-//W3C//DTD SVG 1.1//EN" "http://www.w3.org/Graphics/SVG/1.1/DTD/svg11.dtd">
<svg version="1.1" id="Layer_1" xmlns="http://www.w3.org/2000/svg" xmlns:xlink="http://www.w3.org/1999/xlink" x="0px" y="0px"
	 width="19px" height="19px" viewBox="8.25 8.333 23.416 23.333" enable-background="new 8.25 8.333 23.416 23.333"
	 xml:space="preserve">
<g>
	<path fill="#a3a29d" d="M13.333,31.666h-5V15h5V31.666z M31.666,31.666h-5v-8.902c0-2.32-0.826-3.476-2.465-3.476
		c-1.298,0-2.121,0.647-2.535,1.942c0,2.104,0,10.436,0,10.436h-5c0,0,0.067-15,0-16.666h3.947l0.305,3.333h0.104
		c1.025-1.667,2.664-2.797,4.91-2.797c1.709,0,3.09,0.475,4.145,1.668c1.063,1.195,1.59,2.798,1.59,5.05V31.666z"/>
</g>
<g>
	<ellipse fill="#a3a29d" cx="10.833" cy="10.833" rx="2.583" ry="2.5"/>
</g>
</svg>
