<svg height="84.505" viewBox="0 0 125.961 84.505" width="125.961" xmlns="http://www.w3.org/2000/svg"><g fill="#0072ae"><path d="m30.614 287.622h-13.637v-8.162a.562.562 0 0 0 -.344-.517.555.555 0 0 0 -.607.123l-15.873 15.874a.556.556 0 0 0 0 .788l15.873 15.872a.551.551 0 0 0 .4.164.557.557 0 0 0 .214-.042.563.563 0 0 0 .344-.517v-8.159h13.632a.557.557 0 0 0 .556-.558v-14.307a.56.56 0 0 0 -.559-.558z" transform="translate(.011 -272.342)"/><path d="m877.86 294.958-15.871-15.873a.568.568 0 0 0 -.607-.123.56.56 0 0 0 -.344.517v8.162h-13.638a.558.558 0 0 0 -.558.558v14.307a.559.559 0 0 0 .558.558h13.637v8.159a.562.562 0 0 0 .344.517.541.541 0 0 0 .212.042.559.559 0 0 0 .4-.163l15.871-15.873a.561.561 0 0 0 0-.788z" transform="translate(-752.062 -272.36)"/><path d="m446.25 777.393h-8.159v-13.637a.556.556 0 0 0 -.558-.556h-14.308a.555.555 0 0 0 -.556.556v13.637h-8.162a.557.557 0 0 0 -.393.951l15.873 15.873a.565.565 0 0 0 .791 0l15.873-15.873a.558.558 0 0 0 .121-.607.564.564 0 0 0 -.521-.344z" transform="translate(-367.396 -709.874)"/></g><path d="m482.251 336.606a15.491 15.491 0 0 1 -2.487-.2 16.623 16.623 0 1 1 15.864-26.284 16.587 16.587 0 0 1 -13.377 26.486zm-13.108-18.621a13.253 13.253 0 1 0 26.217 3.9 13.092 13.092 0 0 0 -2.42-9.814 13.263 13.263 0 0 0 -23.8 5.915z" transform="translate(-418.875 -297.147)"/><path d="m588.59 437.478a10.284 10.284 0 1 1 8.81-4.978 10.367 10.367 0 0 1 -8.806 4.974zm-5.916-13.915a6.952 6.952 0 1 0 9.546-2.353 6.982 6.982 0 0 0 -9.545 2.353z" transform="translate(-525.215 -404.337)"/><path d="m71.006 192.6a22.843 22.843 0 0 0 -11.9 42.35h-27.425a1.681 1.681 0 1 0 0 3.361h39.325a22.856 22.856 0 0 0 0-45.711zm0 42.35a19.494 19.494 0 1 1 19.494-19.494 19.508 19.508 0 0 1 -19.494 19.494z" transform="translate(-7.63 -192.6)"/></svg>