<svg height="86.136" viewBox="0 0 86.135 86.136" width="86.135" xmlns="http://www.w3.org/2000/svg"><g transform="translate(-64.881 -64.863)"><path d="m268.321 797.84h-10.832a.786.786 0 0 0 -.522.13c-.13.13-.261.13-.391.261l-12.529 12.92h-12.53l-12.529-12.92a1.41 1.41 0 0 0 -.914-.391h-10.831a1.233 1.233 0 0 0 -1.3 1.3v24.536a1.233 1.233 0 0 0 1.3 1.3h61.338a1.233 1.233 0 0 0 1.3-1.3v-24.53a1.778 1.778 0 0 0 -1.566-1.305z" fill="#0071ad" transform="translate(-129.704 -673.987)"/><path d="m412.8 760.042h7.439a1.185 1.185 0 0 0 .914-.391l10.962-11.484a1.292 1.292 0 0 0 -1.827-1.827l-10.571 11.093h-6.395l-10.571-11.093a1.292 1.292 0 0 0 -1.827 1.827l10.962 11.484a1.411 1.411 0 0 0 .914.391z" transform="translate(-308.639 -626.271)"/><path d="m149.708 64.863h-83.522a1.305 1.305 0 0 0 0 2.61h26.623v20.882a5.323 5.323 0 0 0 3.915 5.09v12.007a5.235 5.235 0 0 0 5.22 5.22h1.7v13.573a1.185 1.185 0 0 0 .391.914l3 3a1.262 1.262 0 0 0 1.827 0l3-3a1.185 1.185 0 0 0 .391-.914v-13.573h1.7a5.235 5.235 0 0 0 5.22-5.22v-12.007a5.208 5.208 0 0 0 3.915-5.09v-20.881h26.623a1.305 1.305 0 0 0 0-2.61zm-50.376 7.831a1.3 1.3 0 0 1 2.61 0v7.961a1.3 1.3 0 0 1 -2.61 0zm0 12.659a1.3 1.3 0 0 1 2.61 0v.391a1.3 1.3 0 0 1 -2.61 0zm17.227 20.1a2.618 2.618 0 0 1 -2.61 2.61h-12.138a2.618 2.618 0 0 1 -2.61-2.61v-11.878h2.48v6.525a1.3 1.3 0 1 0 2.61 0v-6.525h2.349v9.788a1.3 1.3 0 1 0 2.61 0v-9.788h2.219v6.525a1.3 1.3 0 1 0 2.61 0v-6.525h2.48z" fill="#0071ad"/></g></svg>