<svg height="87.424" viewBox="0 0 87.423 87.424" width="87.423" xmlns="http://www.w3.org/2000/svg"><g transform="translate(-84 -83.996)"><path d="m127.711 84-5.686 3.9-6.766-1.43-3.78 5.782-6.766 1.271-1.271 6.766-5.782 3.78 1.4 6.766-3.876 5.686 3.876 5.718-1.4 6.735 5.782 3.78 1.271 6.766 6.766 1.3 3.78 5.75 6.766-1.4 5.686 3.876 5.686-3.876 6.766 1.4 3.78-5.75 6.766-1.3 1.271-6.766 5.782-3.78-1.4-6.735 3.876-5.718-3.876-5.686 1.4-6.766-5.782-3.78-1.271-6.766-6.766-1.271-3.78-5.782-6.763 1.43zm0 10.165a22.364 22.364 0 1 1 -22.364 22.364 22.364 22.364 0 0 1 22.364-22.364zm11.182 11.85-14.358 14.355-6-5.242-2.287-2-4 4.606 10.42 9.117 2.128 1.874 16.265-16.265 2.16-2.128zm-37.8 27.637-17.093 26.586 15.248-3.05 4.066 14.232 13.914-23.19-1.557.318a2.087 2.087 0 0 1 -2.128-.858l-3.3-5.051-5.909-1.144a2.087 2.087 0 0 1 -1.62-1.62l-1.144-5.909zm53.242 0-.477.318-1.144 5.909a2.087 2.087 0 0 1 -1.62 1.62l-5.909 1.144-3.3 5.051a2.087 2.087 0 0 1 -2.128.858l-1.557-.318 13.914 23.19 4.066-14.232 15.248 3.05z" fill="#0071ad"/><path d="m138.893 106.011-14.358 14.359-6-5.242-2.287-2-4 4.606 10.42 9.117 2.128 1.874 16.265-16.265 2.16-2.128z"/></g></svg>