<svg height="93.896" viewBox="0 0 100.615 93.896" width="100.615" xmlns="http://www.w3.org/2000/svg" xmlns:xlink="http://www.w3.org/1999/xlink"><clipPath id="a"><path fill="#fff" d="m0 0h100.615v93.896h-100.615z"/></clipPath><g clip-path="url(#a)"><path fill="#fff" d="m230.636 308.873a1.429 1.429 0 0 1 1.43-1.43h62.688a1.429 1.429 0 0 1 1.43 1.43v40.769h7.656v-57.812h-80.86v57.812h7.656z" transform="translate(-213.477 -278.029)"/><path fill="#fff" d="m321.04 700.2h59.828v5.58h-59.828z" transform="translate(-301.022 -642.607)"/><path fill="#fff" d="m321.04 778.9h59.828v5.581h-59.828z" transform="translate(-301.022 -712.868)"/><path fill="#fff" d="m321.04 621.5h59.828v5.58h-59.828z" transform="translate(-301.022 -572.347)"/><path fill="#fff" d="m321.04 542.8h59.828v5.58h-59.828z" transform="translate(-301.022 -502.086)"/><path fill="#fff" d="m321.04 464.09h59.828v5.58h-59.828z" transform="translate(-301.022 -431.817)"/><path fill="#fff" d="m193.67 857.61h87.146v5.422h-87.146z" transform="translate(-187.311 -783.137)"/></g></svg>