<svg height="93.896" viewBox="0 0 100.615 93.896" width="100.615" xmlns="http://www.w3.org/2000/svg" xmlns:xlink="http://www.w3.org/1999/xlink"><clipPath id="a"><path d="m0 0h100.615v93.896h-100.615z"/></clipPath><g clip-path="url(#a)"><path fill="#fff" d="m38.465 68.312a10.65 10.65 0 0 0 7.22 16.308h.157l3.412-15.72a15.347 15.347 0 0 1 -8.838-3.7z" transform="translate(-.102 -6.701)"/><path  fill="#fff" d="m53.468 68.955.767 3.513a10.66 10.66 0 0 0 16.641 6.471l.12-.092-8.689-13.517a15.348 15.348 0 0 1 -8.838 3.624z" transform="translate(-2.006 -6.715)"/><path  fill="#fff" d="m68.955 48.608 3.513-.767a10.66 10.66 0 0 0 6.471-16.641l-.092-.12-13.517 8.69a15.348 15.348 0 0 1 3.624 8.838z" transform="translate(-3.356 -2.816)"/><path  fill="#fff" d="m36.555 40.415-3.032-1.951a10.65 10.65 0 0 0 -16.309 7.221v.157l15.717 3.412a15.348 15.348 0 0 1 3.624-8.838z" transform="translate(2.122 -3.461)"/><path  fill="#fff" d="m33.369 53.468-3.513.767a10.66 10.66 0 0 0 -6.471 16.641l.092.12 13.516-8.69a15.348 15.348 0 0 1 -3.624-8.838z" transform="translate(1.646 -5.365)"/><path  fill="#fff" d="m65.289 62.307 3.032 1.951a10.65 10.65 0 0 0 16.309-7.221v-.157l-15.717-3.412a15.348 15.348 0 0 1 -3.624 8.838z" transform="translate(-3.352 -5.365)"/><path  fill="#fff" d="m48.608 33.369-.767-3.513a10.66 10.66 0 0 0 -16.641-6.471l-.12.092 8.69 13.516a15.348 15.348 0 0 1 8.838-3.624z" transform="translate(.543 -1.713)"/><path  fill="#fff" d="m64.257 33.523a10.65 10.65 0 0 0 -7.221-16.309h-.156l-3.412 15.717a15.347 15.347 0 0 1 8.838 3.7z" transform="translate(-2.006 -1.237)"/><path  fill="#fff" d="m60.85 50.885a9.966 9.966 0 1 0 -4.427 8.29 9.967 9.967 0 0 0 4.427-8.29z" transform="translate(-.577 -3.937)"/><path  fill="#fff" d="m46.819 5.216a41.65 41.65 0 1 0 29.4 12.2 41.6 41.6 0 0 0 -29.4-12.2zm27.588 64.716a36.054 36.054 0 0 1 -24.463 12.777c-1.026.083-2.071.139-3.125.139s-2.1-.055-3.134-.139a36.055 36.055 0 0 1 -32.755-32.765c-.083-1.026-.166-2.071-.166-3.125s.055-2.1.139-3.134a36.054 36.054 0 0 1 32.792-32.755c1.026-.083 2.071-.166 3.125-.166s2.1.055 3.134.139a36.054 36.054 0 0 1 32.755 32.791c.083 1.026.139 2.071.139 3.125s-.055 2.1-.139 3.134a35.851 35.851 0 0 1 -8.3 19.979z" transform="translate(3.488 .129)"/></g></svg>