<svg height="93.896" viewBox="0 0 100.615 93.896" width="100.615" xmlns="http://www.w3.org/2000/svg" xmlns:xlink="http://www.w3.org/1999/xlink"><clipPath id="a"><path fill="#fff" d="m0 0h100.615v93.896h-100.615z"/></clipPath><g clip-path="url(#a)"><path fill="#fff" d="m432 38.571h6.629v2.21a1.1 1.1 0 1 0 2.21 0v-6.081a1.1 1.1 0 0 0 -2.21 0v1.8h-6.629q0 .621 0 1.243v.829z" transform="translate(-390.935 -19.201)"/><path fill="#fff" d="m56.7 39.652a3.828 3.828 0 0 1 .138-1.243h-6.768v-1.8a.985.985 0 0 0 -1.1-.967c-.414-.138-.967.414-.967.967v6.215a1.1 1.1 0 0 0 2.21 0v-2.343h6.629a1.753 1.753 0 0 1 -.138-.829z" transform="translate(-29.031 -21.11)"/><path fill="#fff" d="m165.6 173.745a3.86 3.86 0 0 0 3.867 3.867h33.146v32.317h-15.054v5.662h31.764a6.926 6.926 0 0 1 1.657.276v-47.232a3.065 3.065 0 0 0 -3.038-3.038h-12.153a3.065 3.065 0 0 0 -3.038 3.038v1.381h-24.86v-2.072a6.649 6.649 0 0 1 -6.905 0v2.072h-1.519a3.833 3.833 0 0 0 -3.867 3.729z" transform="translate(-139.865 -143.603)"/><path fill="#fff" d="m196.7 821.592h-33.832v-11.739a3.419 3.419 0 0 0 -3.453-3.453h-14.362a3.419 3.419 0 0 0 -3.453 3.453v14.225a3.656 3.656 0 0 0 3.591 3.591h51.509a3.038 3.038 0 1 0 0-6.077z" transform="translate(-117.246 -747.531)"/><path fill="#fff" d="m202.377 410.4v15.606h-2.072a1.1 1.1 0 0 0 0 2.21h10.772a1.1 1.1 0 0 0 0-2.21h-1.657v-15.606z" transform="translate(-171.533 -374.319)"/><path fill="#fff" d="m242.191 28.694a4.7 4.7 0 1 1 -4.7-4.7 4.7 4.7 0 0 1 4.7 4.7" transform="translate(-203.198 -10.152)"/></g></svg>