<svg height="93.896" viewBox="0 0 100.615 93.896" width="100.615" xmlns="http://www.w3.org/2000/svg" xmlns:xlink="http://www.w3.org/1999/xlink"><clipPath id="a"><path fill="#fff" d="m0 0h100.615v93.896h-100.615z"/></clipPath><g clip-path="url(#a)"><g transform="translate(-298.307 -204.208)"><path fill="#fff" d="m657.076 825.7h-22.63a2.019 2.019 0 0 1 -2.046-2.046v-9.205a2.019 2.019 0 0 1 2.046-2.046h22.63a2.019 2.019 0 0 1 2.045 2.046v9.205a2.019 2.019 0 0 1 -2.045 2.046z" transform="translate(-283.05 -538.218)"/><path fill="#fff" d="m612.132 627.6h-35.543a1.748 1.748 0 0 0 -1.79 1.79v9.973h39.123v-9.973a1.748 1.748 0 0 0 -1.79-1.79zm-30.94 8.31a2.173 2.173 0 1 1 2.173-2.173 2.081 2.081 0 0 1 -2.173 2.173zm8.694 0a2.173 2.173 0 1 1 2.173-2.173 2.081 2.081 0 0 1 -2.174 2.173zm8.439 0a2.173 2.173 0 1 1 2.173-2.173 2.081 2.081 0 0 1 -2.174 2.173zm9.077 0a2.173 2.173 0 1 1 2.173-2.173 2.081 2.081 0 0 1 -2.175 2.173z" transform="translate(-231.585 -373.107)"/><path fill="#fff" d="m574.8 780.214a1.748 1.748 0 0 0 1.79 1.79h35.543a1.748 1.748 0 0 0 1.79-1.79v-23.014h-39.123zm4.219-17.771a1.281 1.281 0 0 1 1.279-1.279h28a1.281 1.281 0 0 1 1.279 1.279v14.447a1.281 1.281 0 0 1 -1.279 1.279h-28a1.281 1.281 0 0 1 -1.279-1.279z" transform="translate(-231.584 -488.899)"/><path fill="#fff" d="m727.2 562.8h2.429a.55.55 0 0 1 .511.512" transform="translate(-367.748 -315.211)"/><path fill="#fff" d="m614.4 795.6h30.557v1.79h-30.557z" transform="translate(-266.966 -523.208)"/><path fill="#fff" d="m361.5 210h-44.24a1.693 1.693 0 0 0 -1.662 1.662v78.629a1.693 1.693 0 0 0 1.662 1.662h24.04v-39.122a.55.55 0 0 1 .511-.512h21.351v-40.656a1.692 1.692 0 0 0 -1.662-1.663zm-40.4 6.52a.737.737 0 0 1 .767-.767h.639a.737.737 0 0 1 .767.767v13.169a.737.737 0 0 1 -.767.767h-.639a.737.737 0 0 1 -.767-.767zm2.174 39a.737.737 0 0 1 -.767.767h-.767a.737.737 0 0 1 -.767-.767v-13.429a.737.737 0 0 1 .767-.767h.767a.737.737 0 0 1 .767.767zm35.026-19.182a.6.6 0 0 1 -.639.639h-36.561a.6.6 0 0 1 -.639-.639v-.895a.6.6 0 0 1 .639-.639h36.566a.6.6 0 0 1 .639.639z"/></g></g></svg>