<svg height="93.896" viewBox="0 0 100.615 93.896" width="100.615" xmlns="http://www.w3.org/2000/svg" xmlns:xlink="http://www.w3.org/1999/xlink"><clipPath id="a"><path fill="#fff" d="m0 0h100.615v93.896h-100.615z"/></clipPath><g clip-path="url(#a)"><path fill="#fff" d="m487.329 378.82-6.177 5.405h6.177z" transform="translate(-439.897 -348.848)"/><path fill="#fff" d="m75 562.5h2.848v2.848h-2.848z" transform="translate(-64.587 -518.58)"/><path fill="#fff" d="m86.389 491.772h15.662v2.848h-14.824l-6.237 11.226 3.275 1.228 3.7-7.4a1.425 1.425 0 0 1 1.273-.787h11.391a1.425 1.425 0 0 1 1.273.787l3.878 7.756h6.239v-19.93h-37.019v2.848h4.27a1.424 1.424 0 0 1 1.424 1.424v5.7a1.424 1.424 0 0 1 -1.424 1.424h-4.27v4.704l3.3 1.236 6.844-12.336a1.424 1.424 0 0 1 1.245-.732z" transform="translate(-64.585 -449.276)"/><path fill="#fff" d="m997.171 491.771h.834v-4.271h-4.271v.834z" transform="translate(-913.555 -449.276)"/><path fill="#fff" d="m113.7 86.361a35.6 35.6 0 0 1 47.908 4.88 1.424 1.424 0 0 1 -.057 1.953l-.883.883 9.535 1.907-1.907-9.535-1.7 1.7a1.424 1.424 0 0 1 -2.061-.05 39.877 39.877 0 0 0 -67.746 15.391h4.482a35.928 35.928 0 0 1 12.429-17.13z" transform="translate(-84.715 -68.117)"/><path fill="#fff" d="m675 363.369h15.414l-6.1-7.119h-9.314z" transform="translate(-619.024 -327.992)"/><path fill="#fff" d="m873.891 680.7a5.7 5.7 0 1 0 -1.67 4.025 5.694 5.694 0 0 0 1.67-4.025zm-7.119 0a1.424 1.424 0 1 1 .417 1.007 1.424 1.424 0 0 1 -.418-1.007z" transform="translate(-792.286 -622.537)"/><path fill="#fff" d="m1087.5 487.5v7.953l2.014 2.014h.834v-9.967z" transform="translate(-1000.2 -449.272)"/><path fill="#fff" d="m262.5 680.7a5.7 5.7 0 1 0 1.67-4.025 5.694 5.694 0 0 0 -1.67 4.025zm7.119 0a1.424 1.424 0 1 1 -.417-1.007 1.424 1.424 0 0 1 .417 1.007z" transform="translate(-237.848 -622.537)"/><path fill="#fff" d="m637.44 378.616-2.848-2.848a1.424 1.424 0 0 1 -.417-1.007v-1.424h-21.357v-2.847h16.5l-1.841-1.841a1.424 1.424 0 0 1 -.417-1.007v-1.424h-22.785a1.424 1.424 0 0 1 -1.424-1.424v-8.543h-2.851v29.9h14.782l3.878-7.756a1.424 1.424 0 0 1 1.273-.787h11.391a1.424 1.424 0 0 1 1.273.787l3.878 7.756h3.391v-7.119h-1.424a1.424 1.424 0 0 1 -1.007-.417z" transform="translate(-549.723 -327.994)"/><path fill="#fff" d="m205.943 770.235-.284-.567a8.555 8.555 0 0 1 -3.587 5.553 35.6 35.6 0 0 1 -57.061 5.206 1.423 1.423 0 0 1 .057-1.953l.883-.883-9.535-1.907 1.907 9.535 1.7-1.7a1.424 1.424 0 0 1 2.061.05 39.88 39.88 0 0 0 66.781-12.544h-1.653a1.424 1.424 0 0 1 -1.273-.787z" transform="translate(-121.339 -710.016)"/></g></svg>