<svg height="93.896" viewBox="0 0 100.615 93.896" width="100.615" xmlns="http://www.w3.org/2000/svg" xmlns:xlink="http://www.w3.org/1999/xlink"><clipPath id="a"><path fill="#fff" d="m0 0h100.615v93.896h-100.615z"/></clipPath><g clip-path="url(#a)"><path fill="#fff" d="m455.33 543.616 4.616 4.642 4.616-4.616-4.616-4.642z" transform="translate(-416.093 -497.106)"/><path fill="#fff" d="m369.67 629.522 4.61-4.61 4.622 4.622-4.61 4.61z" transform="translate(-337.024 -576.409)"/><path fill="#fff" d="m464.592 715.286-4.642-4.616-4.616 4.616 4.642 4.616z" transform="translate(-416.097 -655.569)"/><path fill="#fff" d="m550.256 629.616-4.642-4.616-4.614 4.616 4.642 4.616z" transform="translate(-495.171 -576.49)"/><path fill="#fff" d="m626.92 543.942 4.61-4.61 4.622 4.622-4.61 4.61z" transform="translate(-574.482 -497.413)"/><path fill="#fff" d="m712.67 629.677 4.622-4.6 4.6 4.622-4.622 4.6z" transform="translate(-653.635 -576.564)"/><path fill="#fff" d="m636.209 715.286-4.591-4.616-4.618 4.616 4.591 4.616z" transform="translate(-574.558 -655.569)"/><path fill="#fff" d="m541 800.956 4.616-4.616 4.616 4.616-4.616 4.616z" transform="translate(-495.172 -734.648)"/><path fill="#fff" d="m635.926 886.616-4.642-4.616-4.616 4.616 4.642 4.616z" transform="translate(-574.249 -813.718)"/><path fill="#fff" d="m721.592 800.946-4.642-4.616-4.616 4.616 4.642 4.616z" transform="translate(-653.325 -734.639)"/><path fill="#fff" d="m798.33 886.616 4.616-4.616 4.616 4.616-4.616 4.616z" transform="translate(-732.705 -813.718)"/><path fill="#fff" d="m883.92 629.442 4.635-4.61 4.61 4.635-4.635 4.61z" transform="translate(-811.71 -576.335)"/><path fill="#fff" d="m884 800.956 4.616-4.616 4.616 4.616-4.616 4.616z" transform="translate(-811.784 -734.648)"/><path fill="#fff" d="m798.33 715.286 4.616-4.616 4.616 4.616-4.616 4.616z" transform="translate(-732.705 -655.569)"/><path fill="#fff" d="m969.67 543.616 4.616-4.616 4.616 4.616-4.616 4.616z" transform="translate(-890.863 -497.106)"/><path fill="#fff" d="m1058.538 649.716v-6.386l-3.206 3.206z" transform="translate(-969.934 -593.41)"/><path fill="#fff" d="m969.67 715.286 4.616-4.616 4.616 4.616-4.616 4.616z" transform="translate(-890.863 -655.569)"/><path fill="#fff" d="m1058.538 821.079v-6.411l-3.206 3.205z" transform="translate(-969.934 -751.566)"/><path fill="#fff" d="m969.67 886.616 4.616-4.616 4.616 4.616-4.616 4.616z" transform="translate(-890.863 -813.718)"/><path fill="#fff" d="m1058.538 992.686v-6.386l-3.206 3.18z" transform="translate(-969.934 -909.993)"/><path fill="#fff" d="m986 1056.692h6.719l-3.359-3.36z" transform="translate(-905.936 -971.868)"/><path fill="#fff" d="m884 972.316 4.616-4.616 4.616 4.616-4.616 4.616z" transform="translate(-811.784 -892.824)"/><path fill="#fff" d="m814.67 1056.692h6.719l-3.36-3.36z" transform="translate(-747.788 -971.868)"/><path fill="#fff" d="m712.58 972.485 4.61-4.635 4.609 4.584-4.61 4.635z" transform="translate(-653.552 -892.963)"/><path fill="#fff" d="m643.67 1057h6.668l-3.338-3.332z" transform="translate(-589.943 -972.178)"/><path fill="#fff" d="m284 715.192 4.61-4.61 4.622 4.622-4.61 4.61z" transform="translate(-257.945 -655.488)"/><path fill="#fff" d="m369.67 800.956 4.616-4.616 4.642 4.642-4.616 4.616z" transform="translate(-337.024 -734.648)"/><path fill="#fff" d="m455.33 886.616 4.616-4.616 4.616 4.616-4.616 4.616z" transform="translate(-416.093 -813.718)"/><path fill="#fff" d="m541 972.316 4.616-4.616 4.642 4.642-4.617 4.616z" transform="translate(-495.172 -892.824)"/><path fill="#fff" d="m471.67 1056.692h6.719l-3.36-3.36z" transform="translate(-431.176 -971.868)"/><path fill="#fff" d="m198.33 800.956 4.616-4.616 4.616 4.616-4.616 4.616z" transform="translate(-178.866 -734.648)"/><path fill="#fff" d="m284 886.616 4.616-4.616 4.642 4.642-4.616 4.616z" transform="translate(-257.945 -813.718)"/><path fill="#fff" d="m369.67 972.316 4.616-4.616 4.616 4.616-4.616 4.616z" transform="translate(-337.024 -892.824)"/><path fill="#fff" d="m300.33 1056.692h6.719l-3.36-3.36z" transform="translate(-273.018 -971.868)"/><path fill="#fff" d="m198.33 972.316 4.616-4.616 4.642 4.642-4.616 4.616z" transform="translate(-178.866 -892.824)"/><path fill="#fff" d="m129 1056.692h6.693l-3.334-3.36z" transform="translate(-114.87 -971.868)"/><path fill="#fff" d="m103 984v6.745l3.385-3.385z" transform="translate(-90.87 -907.87)"/><path fill="#fff" d="m112.5 886.54 4.622-4.622 4.622 4.622-4.622 4.622z" transform="translate(-99.639 -813.642)"/><path fill="#fff" d="m103 641v6.77l3.385-3.385z" transform="translate(-90.87 -591.259)"/><path fill="#fff" d="m103 812.33v6.745l3.385-3.36z" transform="translate(-90.87 -749.408)"/><path fill="#fff" d="m112.42 714.96 4.622-4.622 4.635 4.635-4.622 4.622z" transform="translate(-99.565 -655.262)"/><path fill="#fff" d="m202.946 633.9 4.616-4.591-4.642-4.642-4.591 4.616z" transform="translate(-178.866 -576.185)"/><path fill="#fff" d="m284 543.616 4.616 4.616 4.616-4.591-4.641-4.641z" transform="translate(-257.945 -497.106)"/><path fill="#fff" d="m369.67 457.946 4.616-4.616 4.616 4.616-4.616 4.616z" transform="translate(-337.024 -418.027)"/><path fill="#fff" d="m541 457.946 4.616-4.616 4.616 4.616-4.616 4.616z" transform="translate(-495.172 -418.027)"/><path fill="#fff" d="m455.33 372.286 4.616-4.616 4.616 4.616-4.616 4.616z" transform="translate(-416.093 -338.958)"/><path fill="#fff" d="m541 286.616 4.616-4.616 4.616 4.616-4.616 4.616z" transform="translate(-495.172 -259.879)"/><path fill="#fff" d="m626.66 372.2 4.623-4.622 4.622 4.623-4.623 4.622z" transform="translate(-574.242 -338.873)"/><path fill="#fff" d="m712.67 286.616 4.616-4.616 4.616 4.616-4.616 4.616z" transform="translate(-653.635 -259.879)"/><path fill="#fff" d="m712.67 457.946 4.616 4.642 4.616-4.616-4.616-4.642z" transform="translate(-653.635 -418.027)"/><path fill="#fff" d="m798.33 372.286 4.616-4.616 4.616 4.616-4.616 4.616z" transform="translate(-732.705 -338.958)"/><path fill="#fff" d="m802.946 548.539 4.616-4.616-4.616-4.591-4.616 4.616z" transform="translate(-732.705 -497.413)"/><path fill="#fff" d="m1058.538 478.079v-6.411l-3.206 3.205z" transform="translate(-969.934 -434.955)"/><path fill="#fff" d="m884 457.946 4.616-4.616 4.616 4.616-4.616 4.616z" transform="translate(-811.784 -418.027)"/><path fill="#fff" d="m969.67 372.286 4.616-4.616 4.616 4.616-4.616 4.616z" transform="translate(-890.863 -338.958)"/><path fill="#fff" d="m1058.538 307.056v-6.386l-3.206 3.18z" transform="translate(-969.934 -277.112)"/><path fill="#fff" d="m884 286.616 4.616-4.616 4.616 4.616-4.616 4.616z" transform="translate(-811.784 -259.879)"/><path fill="#fff" d="m969.67 200.956 4.616-4.616 4.616 4.616-4.616 4.616z" transform="translate(-890.863 -180.809)"/><path fill="#fff" d="m1055.3 132.208 3.206 3.18v-6.388z" transform="translate(-969.905 -118.652)"/><path fill="#fff" d="m994.469 103h-6.437l3.206 3.231z" transform="translate(-907.812 -94.65)"/><path fill="#fff" d="m798.33 200.956 4.616-4.616 4.616 4.616-4.616 4.616z" transform="translate(-732.705 -180.809)"/><path fill="#fff" d="m884 115.286 4.616-4.616 4.616 4.616-4.616 4.616z" transform="translate(-811.784 -101.73)"/><path fill="#fff" d="m822.769 103h-6.437l3.231 3.231z" transform="translate(-749.322 -94.65)"/><path fill="#fff" d="m712.58 115.285 4.584-4.61 4.635 4.61-4.584 4.609z" transform="translate(-653.552 -101.735)"/><path fill="#fff" d="m626.67 200.64 4.616 4.616 4.642-4.616-4.642-4.64z" transform="translate(-574.251 -180.493)"/><path fill="#fff" d="m541.25 115.305 4.61-4.635 4.609 4.584-4.61 4.635z" transform="translate(-495.403 -101.73)"/><path fill="#fff" d="m651.439 103h-6.439l3.206 3.206z" transform="translate(-591.173 -94.65)"/><path fill="#fff" d="m455.33 200.956 4.616-4.616 4.616 4.616-4.616 4.616z" transform="translate(-416.093 -180.809)"/><path fill="#fff" d="m480.1 103h-6.437l3.205 3.231z" transform="translate(-433.019 -94.65)"/><path fill="#fff" d="m308.439 103h-6.439l3.231 3.231z" transform="translate(-274.562 -94.65)"/><path fill="#fff" d="m369.67 115.286 4.616-4.616 4.616 4.616-4.616 4.616z" transform="translate(-337.024 -101.73)"/><path fill="#fff" d="m284 200.956 4.616-4.616 4.616 4.616-4.616 4.616z" transform="translate(-257.945 -180.809)"/><path fill="#fff" d="m369.67 286.616 4.616-4.616 4.616 4.616-4.616 4.616z" transform="translate(-337.024 -259.879)"/><path fill="#fff" d="m284 372.31 4.616 4.616 4.616-4.642-4.616-4.616z" transform="translate(-257.945 -338.956)"/><path fill="#fff" d="m198.34 458.177 4.622-4.6 4.61 4.635-4.622 4.6z" transform="translate(-178.875 -418.258)"/><path fill="#fff" d="m117.286 548.539 4.616-4.591-4.616-4.616-4.616 4.591z" transform="translate(-99.796 -497.413)"/><path fill="#fff" d="m103 469.67v6.744l3.385-3.385z" transform="translate(-90.87 -433.11)"/><path fill="#fff" d="m198.33 286.715 4.61-4.635 4.622 4.6-4.61 4.635z" transform="translate(-178.866 -259.952)"/><path fill="#fff" d="m117.286 377.209 4.59-4.591-4.59-4.618-4.616 4.616z" transform="translate(-99.796 -339.264)"/><path fill="#fff" d="m103 298.33v6.745l3.385-3.36z" transform="translate(-90.87 -274.952)"/><path fill="#fff" d="m198.33 115.286 4.616-4.616 4.616 4.616-4.616 4.616z" transform="translate(-178.866 -101.73)"/><path fill="#fff" d="m137.1 103h-6.437l3.231 3.231z" transform="translate(-116.408 -94.65)"/><path fill="#fff" d="m112.33 200.88 4.622-4.622 4.635 4.635-4.622 4.622z" transform="translate(-99.482 -180.733)"/><path fill="#fff" d="m103 126.67v6.744l3.36-3.359z" transform="translate(-90.87 -116.499)"/></g></svg>