<svg height="93.896" viewBox="0 0 100.615 93.896" width="100.615" xmlns="http://www.w3.org/2000/svg" xmlns:xlink="http://www.w3.org/1999/xlink"><clipPath id="a"><path fill="#fff" d="m0 0h100.615v93.896h-100.615z"/></clipPath><g clip-path="url(#a)"><path fill="#fff" d="m192.33 92.23h-10.52l-22-13.945a7.074 7.074 0 0 0 -2.325-12.567v-6.1h5.049a1.838 1.838 0 0 0 1.547-2.836l-3.738-9.466a1.841 1.841 0 0 0 -1.713-1.16h-5.985a1.841 1.841 0 0 0 -1.713 1.16l-3.849 9.779a1.777 1.777 0 0 0 .184 1.713 1.815 1.815 0 0 0 1.528.81h5.005v7.7a1.841 1.841 0 0 0 1.842 1.842 3.412 3.412 0 1 1 -3.413 3.411 1.842 1.842 0 0 0 -3.683 0 7.073 7.073 0 0 0 2.929 5.716l-22 13.945h-10.53a1.847 1.847 0 0 0 -1.842 1.842v38.635a1.847 1.847 0 0 0 1.842 1.842h73.385a1.835 1.835 0 0 0 1.842-1.842v-38.638a1.835 1.835 0 0 0 -1.842-1.842zm-36.686-12.23 19.288 12.23h-38.576zm-25.781 44.435a1.842 1.842 0 1 1 -3.683 0v-22.1a1.842 1.842 0 1 1 3.683 0zm11.049-3.683a1.842 1.842 0 1 1 -3.683 0v-14.729a1.842 1.842 0 1 1 3.683 0zm11.049 3.683a1.842 1.842 0 0 1 -3.683 0v-22.1a1.842 1.842 0 1 1 3.683 0zm11.049-3.683a1.842 1.842 0 0 1 -3.683 0v-14.729a1.842 1.842 0 0 1 3.683 0zm11.049 3.683a1.842 1.842 0 0 1 -3.683 0v-22.1a1.842 1.842 0 0 1 3.683 0zm11.049-3.683a1.842 1.842 0 1 1 -3.683 0v-14.729a1.842 1.842 0 1 1 3.683 0z" transform="translate(-105.44 -43.155)"/></g></svg>