<svg height="93.896" viewBox="0 0 100.615 93.896" width="100.615" xmlns="http://www.w3.org/2000/svg" xmlns:xlink="http://www.w3.org/1999/xlink"><clipPath id="a"><path fill="#fff" d="m0 0h100.615v93.896h-100.615z"/></clipPath><g clip-path="url(#a)"><g transform="translate(-59.542 -109.562)"><path fill="#fff" d="m93.645 121.48h-21.8a1.257 1.257 0 0 0 -1.256 1.256v68.074a1.257 1.257 0 0 0 1.256 1.256h21.8a1.248 1.248 0 0 0 1.238-1.256v-68.074a1.248 1.248 0 0 0 -1.238-1.256zm-15.545 37.495a1.3 1.3 0 0 1 -2.6 0v-4.4a1.3 1.3 0 0 1 2.6 0zm10.569-13.275h-11.869a1.3 1.3 0 1 1 0-2.6h11.869a1.3 1.3 0 1 1 0 2.6zm0-8.06h-11.869a1.3 1.3 0 1 1 0-2.6h11.869a1.3 1.3 0 1 1 0 2.6zm0-8.059h-11.869a1.3 1.3 0 1 1 0-2.6h11.869a1.3 1.3 0 1 1 0 2.6z"/><path fill="#fff" d="m823.021 121.48h-21.8a1.257 1.257 0 0 0 -1.256 1.256v68.074a1.257 1.257 0 0 0 1.256 1.256h21.8a1.247 1.247 0 0 0 1.237-1.256v-68.074a1.247 1.247 0 0 0 -1.237-1.256zm-15.544 37.495a1.3 1.3 0 1 1 -2.6 0v-4.4a1.3 1.3 0 1 1 2.6 0zm10.567-13.275h-11.868a1.3 1.3 0 0 1 0-2.6h11.868a1.3 1.3 0 0 1 0 2.6zm0-8.06h-11.868a1.3 1.3 0 0 1 0-2.6h11.868a1.3 1.3 0 0 1 0 2.6zm0-8.059h-11.868a1.3 1.3 0 0 1 0-2.6h11.868a1.3 1.3 0 0 1 0 2.6z" transform="translate(-675.582)"/><path fill="#fff" d="m458.351 121.48h-21.8a1.257 1.257 0 0 0 -1.256 1.256v68.074a1.257 1.257 0 0 0 1.256 1.256h21.8a1.248 1.248 0 0 0 1.238-1.256v-68.074a1.248 1.248 0 0 0 -1.238-1.256zm-15.542 37.495a1.3 1.3 0 1 1 -2.6 0v-4.4a1.3 1.3 0 1 1 2.6 0zm10.566-13.275h-11.868a1.3 1.3 0 1 1 0-2.6h11.868a1.3 1.3 0 0 1 0 2.6zm0-8.06h-11.868a1.3 1.3 0 1 1 0-2.6h11.868a1.3 1.3 0 1 1 0 2.6zm0-8.059h-11.868a1.3 1.3 0 1 1 0-2.6h11.868a1.3 1.3 0 0 1 0 2.6z" transform="translate(-337.807)"/></g></g></svg>